<svg xmlns="http://www.w3.org/2000/svg" viewBox="0 0 24 24" width="100%" height="100%">
    <path fill="white" d="M8 4C6.35 4 5 5.35 5 7v2c0 .55-.45 1-1 1H3v4h1c.55 0 1 .45 1 1v2c0 1.65 1.35 3 3 3h3v-2H8c-.55 0-1-.45-1-1v-2c0-1.3-.84-2.42-2-2.83v-.34C6.16 11.42 7 10.3 7 9V7c0-.55.45-1 1-1h3V4H8z"/>
    <path fill="white" d="M16 4c1.65 0 3 1.35 3 3v2c0 .55.45 1 1 1h1v4h-1c-.55 0-1 .45-1 1v2c0 1.65-1.35 3-3 3h-3v-2h3c.55 0 1-.45 1-1v-2c0-1.3.84-2.42 2-2.83v-.34C17.84 11.42 17 10.3 17 9V7c0-.55-.45-1-1-1h-3V4h3z"/>
</svg>